#!OML:ASF E:\Style4\Style4.ASF
:FULLY-SPECIFIED
:DEGREES
2548
root 0.368833 16.3326 0.0957991 3.89167 8.81685 4.89869
lowerback 13.2248 3.90903 -0.856324
upperback 5.87501 5.05296 -0.790871
thorax -1.22059 2.52606 -1.04665
lowerneck 3.90468 -2.1507 -5.00802
upperneck 0.364675 -3.05781 2.59356
head -0.425184 -1.55125 1.69927
rclavicle -2.82274e-014 -7.15625e-015
rhumerus -29.7161 23.5618 -57.0635
rradius 136.227
rwrist -74.2388
rhand 51.1479 -2.1126
rfingers 7.12502
rthumb 70.6843 4.46962
lclavicle -2.82274e-014 -7.15625e-015
lhumerus -13.0427 -14.9704 50.691
lradius 139.641
lwrist 73.5913
lhand 36.162 48.3134
lfingers 7.12502
lthumb 59.1447 62.9612
rfemur -29.0992 -11.2867 12.8345
rtibia 64.0597
rfoot -31.3968 -22.3508
rtoes -16.9616
lfemur -29.7794 -3.70074 -25.7064
ltibia 59.5302
lfoot -30.9702 10.7252
ltoes -18.9732
2549
root 0.367794 16.3303 0.095236 3.79694 8.79354 4.8546
lowerback 13.2043 3.91111 -0.844072
upperback 5.9729 5.05976 -0.759094
thorax -1.10889 2.52991 -1.01546
lowerneck 5.06213 -2.07639 -4.97988
upperneck -0.80625 -3.00873 2.57707
head -0.994764 -1.52201 1.72592
rclavicle 5.82439e-014 -2.22639e-014
rhumerus -29.5335 23.5197 -56.9487
rradius 136.237
rwrist -74.2087
rhand 51.1068 -2.03651
rfingers 7.12502
rthumb 70.6588 4.45399
lclavicle 5.82439e-014 -2.22639e-014
lhumerus -12.9496 -14.7845 50.6269
lradius 139.721
lwrist 73.6147
lhand 36.0214 48.4201
lfingers 7.12502
lthumb 59.0234 63.1863
rfemur -29.0291 -11.236 12.8749
rtibia 64.0802
rfoot -31.279 -22.4363
rtoes -17.0048
lfemur -29.7231 -3.64134 -25.6574
ltibia 59.5731
lfoot -31.0165 10.6086
ltoes -18.7769
2550
root 0.367065 16.3284 0.0941883 3.71776 8.77076 4.81062
lowerback 13.2077 3.91685 -0.820584
upperback 6.05071 5.07136 -0.752452
thorax -1.02765 2.53653 -1.01981
lowerneck 6.12914 -2.00348 -4.83444
upperneck -1.88581 -2.9511 2.49341
head -1.5324 -1.4873 1.71109
rclavicle -2.66371e-014 -3.18055e-014
rhumerus -29.3979 23.481 -56.8828
rradius 136.257
rwrist -74.251
rhand 51.1056 -1.98067
rfingers 7.12502
rthumb 70.658 4.50717
lclavicle -2.66371e-014 -3.18055e-014
lhumerus -12.8778 -14.6749 50.5091
lradius 139.774
lwrist 73.6018
lhand 35.9692 48.3688
lfingers 7.12502
lthumb 58.9783 63.1788
rfemur -28.9729 -11.1852 12.9186
rtibia 64.0949
rfoot -31.3273 -22.4087
rtoes -16.8256
lfemur -29.6788 -3.58485 -25.6077
ltibia 59.6177
lfoot -31.0496 10.4866
ltoes -18.6842
2551
root 0.368204 16.3264 0.0944228 3.64351 8.74756 4.75939
lowerback 13.2244 3.925 -0.767989
upperback 6.11692 5.08923 -0.738775
thorax -0.963714 2.54662 -1.03536
lowerneck 7.08996 -1.91907 -4.74168
upperneck -2.80372 -2.87529 2.44015
head -2.0091 -1.44405 1.71176
rclavicle 4.67144e-014 -7.15625e-015
rhumerus -29.3267 23.4543 -56.7951
rradius 136.294
rwrist -74.3234
rhand 51.1009 -1.88017
rfingers 7.12502
rthumb 70.6551 4.59727
lclavicle 4.67144e-014 -7.15625e-015
lhumerus -12.8342 -14.6186 50.3995
lradius 139.832
lwrist 73.6095
lhand 36.1023 48.3747
lfingers 7.12502
lthumb 59.0933 63.0729
rfemur -28.9124 -11.173 12.9614
rtibia 64.1037
rfoot -31.4162 -22.3627
rtoes -16.6325
lfemur -29.6292 -3.55313 -25.5639
ltibia 59.6723
lfoot -31.1235 10.5954
ltoes -19.105
2552
root 0.368703 16.324 0.0946737 3.59021 8.73097 4.73389
lowerback 13.2051 3.93081 -0.735898
upperback 6.18749 5.10208 -0.739322
thorax -0.876477 2.55422 -1.05066
lowerneck 8.00078 -1.83782 -4.61641
upperneck -3.63334 -2.79708 2.38944
head -2.45712 -1.40023 1.7051
rclavicle -1.15295e-014 -1.59028e-015
rhumerus -29.246 23.4348 -56.7158
rradius 136.326
rwrist -74.3897
rhand 51.0943 -1.82345
rfingers 7.12502
rthumb 70.651 4.63927
lclavicle -1.15295e-014 -1.59028e-015
lhumerus -12.7907 -14.5859 50.3089
lradius 139.942
lwrist 73.5836
lhand 36.2021 48.5714
lfingers 7.12502
lthumb 59.1794 63.1852
rfemur -28.8622 -11.1859 12.9785
rtibia 64.1219
rfoot -31.5189 -22.2565
rtoes -16.3766
lfemur -29.603 -3.53359 -25.541
ltibia 59.7219
lfoot -31.202 10.7114
ltoes -19.4687
2553
root 0.367932 16.3217 0.0942653 3.55569 8.71189 4.71324
lowerback 13.1774 3.9424 -0.732579
upperback 6.24826 5.11904 -0.745592
thorax -0.796852 2.56335 -1.05633
lowerneck 8.7666 -1.78158 -4.41984
upperneck -4.30171 -2.74031 2.27093
head -2.83172 -1.36667 1.65776
rclavicle 8.82604e-014 -4.53229e-014
rhumerus -29.1366 23.4215 -56.6149
rradius 136.336
rwrist -74.4236
rhand 51.0982 -1.8529
rfingers 7.12502
rthumb 70.6534 4.61838
lclavicle 8.82604e-014 -4.53229e-014
lhumerus -12.7072 -14.5544 50.1774
lradius 140.022
lwrist 73.6221
lhand 36.1693 48.6322
lfingers 7.12502
lthumb 59.1511 63.2738
rfemur -28.8477 -11.1813 13.0125
rtibia 64.1489
rfoot -31.5062 -22.3007
rtoes -16.3439
lfemur -29.5997 -3.51423 -25.5112
ltibia 59.7605
lfoot -31.228 10.7125
ltoes -19.4659
2554
root 0.369272 16.3201 0.0942345 3.51472 8.67477 4.71451
lowerback 13.2396 3.96021 -0.754631
upperback 6.25298 5.13859 -0.752012
thorax -0.826129 2.57264 -1.05786
lowerneck 9.44095 -1.73372 -4.28152
upperneck -4.78187 -2.6922 2.20749
head -3.12858 -1.33983 1.63334
rclavicle 8.5875e-014 -2.62396e-014
rhumerus -29.1446 23.4554 -56.5226
rradius 136.397
rwrist -74.4433
rhand 51.1865 -1.97116
rfingers 7.12502
rthumb 70.7083 4.69743
lclavicle 8.5875e-014 -2.62396e-014
lhumerus -12.6197 -14.4933 49.9809
lradius 140.043
lwrist 73.7487
lhand 36.1258 48.565
lfingers 7.12502
lthumb 59.1136 63.2434
rfemur -28.8402 -11.1756 13.0025
rtibia 64.1762
rfoot -31.3882 -22.4209
rtoes -16.6411
lfemur -29.5607 -3.50064 -25.524
ltibia 59.773
lfoot -31.1938 10.7247
ltoes -19.4701
2555
root 0.370375 16.3189 0.0933212 3.50461 8.62665 4.76624
lowerback 13.3277 3.97438 -0.874038
upperback 6.20809 5.14061 -0.748787
thorax -0.930773 2.57072 -0.997569
lowerneck 9.99445 -1.67509 -4.19979
upperneck -5.03576 -2.62862 2.17124
head -3.32687 -1.30717 1.61991
rclavicle -2.5842e-014 1.27222e-014
rhumerus -29.2481 23.5832 -56.3927
rradius 136.518
rwrist -74.4885
rhand 51.3272 -1.97345
rfingers 7.12502
rthumb 70.7953 5.01201
lclavicle -2.5842e-014 1.27222e-014
lhumerus -12.733 -14.5187 49.8437
lradius 140.07
lwrist 73.684
lhand 36.1555 48.2453
lfingers 7.12502
lthumb 59.1392 62.8986
rfemur -28.8651 -11.169 12.935
rtibia 64.2088
rfoot -31.3844 -22.4032
rtoes -16.8824
lfemur -29.5461 -3.48539 -25.5922
ltibia 59.7765
lfoot -31.1417 10.6719
ltoes -19.1421
